<svg id="Layer_1" data-name="Layer 1" xmlns="http://www.w3.org/2000/svg" viewBox="0 0 169.28 169.28"><defs><style>.cls-1,.cls-2,.cls-3,.cls-4,.cls-7{fill:#fff;}.cls-2,.cls-3,.cls-4,.cls-5,.cls-6,.cls-7,.cls-8{stroke:#37a4dc;}.cls-2,.cls-8{stroke-linecap:round;}.cls-2,.cls-3,.cls-4,.cls-5,.cls-6,.cls-7,.cls-9{stroke-miterlimit:10;}.cls-2,.cls-4{stroke-width:2.28px;}.cls-3{stroke-width:1.31px;}.cls-5,.cls-9{fill:none;}.cls-5,.cls-6,.cls-7,.cls-8{stroke-width:2.32px;}.cls-6,.cls-8{fill:#cbebfb;}.cls-8{stroke-linejoin:round;}.cls-9{stroke:#f9a942;stroke-width:1.67px;}.cls-10{fill:#eaeae9;}.cls-11{fill:#37a2db;}</style></defs><title>ContractorIcon</title><circle class="cls-1" cx="84.64" cy="84.64" r="84.64"/><path class="cls-2" d="M145,95.53a61.06,61.06,0,0,1-8,21.42" transform="translate(-0.36 -0.36)"/><path class="cls-3" d="M145.89,85" transform="translate(-0.36 -0.36)"/><path class="cls-2" d="M113.88,31A61.73,61.73,0,0,1,131.9,46" transform="translate(-0.36 -0.36)"/><path class="cls-4" d="M84.44,23.55" transform="translate(-0.36 -0.36)"/><path class="cls-2" d="M31.17,115.65a61.49,61.49,0,0,1,21.06-83" transform="translate(-0.36 -0.36)"/><path class="cls-2" d="M106.89,142.22a61.68,61.68,0,0,1-45.77-.35" transform="translate(-0.36 -0.36)"/><circle class="cls-5" cx="84.82" cy="59.18" r="31.73"/><path class="cls-6" d="M120.72,59.69a1.58,1.58,0,0,1,1.35,1.73h0a1.58,1.58,0,0,1-1.35,1.73H50.82a1.58,1.58,0,0,1-1.35-1.73h0a1.58,1.58,0,0,1,1.35-1.73" transform="translate(-0.36 -0.36)"/><path class="cls-7" d="M120.47,59.54H50.71a34.88,34.88,0,0,1,69.76,0Z" transform="translate(-0.36 -0.36)"/><path class="cls-6" d="M97.81,25.56v34H73.37V25.89a34,34,0,0,1,12.22-2.64A43.12,43.12,0,0,1,97.81,25.56Z" transform="translate(-0.36 -0.36)"/><path class="cls-5" d="M101.89,90.51a31.71,31.71,0,0,1-33.78,0A47.62,47.62,0,0,0,37.39,135h95.21A47.62,47.62,0,0,0,101.89,90.51Z" transform="translate(-0.36 -0.36)"/><path class="cls-8" d="M85,135S69.41,91.44,67.93,90.51c-5.88,2.23-15.69,9.81-15.69,9.81s5.85,6.8,5.73,14.45c-.29,19-4.36,12-4.36,20.24H85" transform="translate(-0.36 -0.36)"/><path class="cls-8" d="M85,135s15.59-43.58,17.07-44.51c5.88,2.23,15.69,9.81,15.69,9.81s-5.85,6.8-5.73,14.45c.29,19,4.36,12,4.36,20.24H85" transform="translate(-0.36 -0.36)"/><circle class="cls-9" cx="132.35" cy="60.65" r="3.75"/><circle class="cls-10" cx="143.85" cy="68.99" r="2.37"/><circle class="cls-11" cx="141.48" cy="83.27" r="4.11"/></svg>