<svg id="Layer_1" data-name="Layer 1" xmlns="http://www.w3.org/2000/svg" viewBox="0 0 169.66 169.66"><defs><style>.cls-1,.cls-2,.cls-4{fill:#fff;}.cls-2,.cls-4{stroke:#37a4dc;}.cls-2{stroke-miterlimit:10;}.cls-2,.cls-3,.cls-4{stroke-width:2.23px;}.cls-3{fill:#e9e8e7;stroke:#a3a3a3;}.cls-3,.cls-4{stroke-linecap:round;stroke-linejoin:round;}.cls-5{fill:#37a2db;}.cls-6{fill:#b3e3f9;}</style></defs><title>HandymanIcon</title><circle class="cls-1" cx="84.83" cy="84.83" r="84.83"/><path class="cls-2" d="M39.81,118.53A61.71,61.71,0,0,1,29.73,62.6" transform="translate(-0.17 -0.17)"/><path class="cls-2" d="M88.56,142.47" transform="translate(-0.17 -0.17)"/><path class="cls-2" d="M133.36,38.62a61.59,61.59,0,0,1,1.14,83.28" transform="translate(-0.17 -0.17)"/><path class="cls-2" d="M53.62,30.16a61.7,61.7,0,0,1,57.16-6.73" transform="translate(-0.17 -0.17)"/><path class="cls-3" d="M40,44.12a24.32,24.32,0,0,1,10.13-6.54c4.75-1.58,8.69-1.65,11.66.66a16.55,16.55,0,0,0,3.41,2.26c1.63.59,5.54.8,6.91-.58A9.2,9.2,0,0,0,73,38.45h5l0,11.31H74.36s-1.26-1.09-1.48-1.34c-1.28-1.45-6.1-1.05-7.75,0-1.16.72-1.53,3.13-1.84,5.12-.13.83,0,4.5,0,4.5H57.07a37.65,37.65,0,0,0-.74-4.69c-.55-1.58-1.85-4.7-3.1-5.51s-4.34-1.64-8.8,1.06C41,51,32.51,56.21,32.51,56.21,31.39,55,37.92,46.31,40,44.12Z" transform="translate(-0.17 -0.17)"/><path class="cls-3" d="M105.72,69A12.18,12.18,0,0,0,98,58v9.53a5.71,5.71,0,0,1-5.9,5.5c-5.77.09-5.89-5.49-5.89-5.49V58a12.18,12.18,0,0,0-7.69,11c0,5.27,3.71,9.74,8.9,11.46v42.18a4.71,4.71,0,0,0,9.37,0V80.47C102,78.75,105.72,74.28,105.72,69Z" transform="translate(-0.17 -0.17)"/><path class="cls-3" d="M121,28h-3.95a1.31,1.31,0,0,0-1.31,1.31v7.94a1.31,1.31,0,0,0,1.31,1.31h.43v40a1.55,1.55,0,0,0,3.09,0v-40H121a1.31,1.31,0,0,0,1.31-1.31V29.35A1.31,1.31,0,0,0,121,28Z" transform="translate(-0.17 -0.17)"/><rect class="cls-4" x="113.34" y="77.7" width="11.05" height="49" rx="5.53" ry="5.53"/><rect class="cls-4" x="55" y="57.84" width="10.41" height="68.85" rx="4.7" ry="4.7"/><circle class="cls-5" cx="84.39" cy="139.84" r="4.12" transform="translate(-30.29 23.21) rotate(-13.41)"/><circle class="cls-6" cx="101.43" cy="134.97" r="2.45" transform="translate(-62.95 174.05) rotate(-66.52)"/></svg>