<svg id="Layer_1" data-name="Layer 1" xmlns="http://www.w3.org/2000/svg" viewBox="0 0 601.95 316.79"><defs><style>.cls-1{fill:#fff;}.cls-2{fill:#e5e6e6;}.cls-15,.cls-21,.cls-22,.cls-23,.cls-28,.cls-29,.cls-3,.cls-5,.cls-7{fill:none;}.cls-3{stroke:#cae9fa;}.cls-19,.cls-22,.cls-23,.cls-29,.cls-3,.cls-31,.cls-33,.cls-35{stroke-linecap:round;}.cls-10,.cls-11,.cls-12,.cls-14,.cls-15,.cls-16,.cls-17,.cls-19,.cls-21,.cls-22,.cls-23,.cls-26,.cls-27,.cls-28,.cls-29,.cls-3,.cls-30,.cls-31,.cls-32,.cls-33,.cls-35,.cls-5,.cls-7{stroke-miterlimit:10;}.cls-23,.cls-3,.cls-34,.cls-35{stroke-width:3.85px;}.cls-24,.cls-35,.cls-4{fill:#cbebfb;}.cls-4{opacity:0.41;}.cls-5{stroke:#7e7e7e;stroke-width:1.95px;}.cls-6{fill:#d88128;}.cls-7{stroke:#85d5f6;stroke-width:4.23px;}.cls-33,.cls-8{fill:#a3a3a3;}.cls-34,.cls-9{fill:#e9e8e7;}.cls-10{fill:#ffebd3;}.cls-10,.cls-11,.cls-12,.cls-17,.cls-27{stroke:#115679;}.cls-10,.cls-12,.cls-15{stroke-width:1.11px;}.cls-11,.cls-12,.cls-16,.cls-17,.cls-19,.cls-26,.cls-27{fill:#f2d5ba;}.cls-11{stroke-width:0.62px;}.cls-13{fill:#dfc5ad;}.cls-14{fill:#82d0f4;}.cls-14,.cls-34{stroke:#a3a3a3;}.cls-14,.cls-16,.cls-17,.cls-19,.cls-21,.cls-22{stroke-width:1.24px;}.cls-15,.cls-16,.cls-19,.cls-21,.cls-22,.cls-25,.cls-26,.cls-28,.cls-29,.cls-30,.cls-31,.cls-32,.cls-33{stroke:#717373;}.cls-18{fill:#717373;}.cls-20{fill:#716558;opacity:0.44;}.cls-23,.cls-35{stroke:#37a2db;}.cls-25,.cls-30,.cls-31{fill:#f9a942;}.cls-25,.cls-34{stroke-linejoin:round;}.cls-25,.cls-26,.cls-27,.cls-28,.cls-29,.cls-30,.cls-31,.cls-32,.cls-33{stroke-width:1.2px;}.cls-32{fill:#d6d6d6;}</style></defs><title>home_chat</title><path class="cls-1" d="M155.74,303.49l.09-81a8.76,8.76,0,0,1,8.73-8.73H431.69a8.76,8.76,0,0,1,8.73,8.73V380.17a8.76,8.76,0,0,1-8.73,8.73H164.56a8.76,8.76,0,0,1-8.73-8.73l-.3-58.75" transform="translate(1.93 -164.54)"/><path class="cls-2" d="M439.59,234.28v-9.54c0-6-3.93-11-8.73-11H163.73c-4.8,0-8.73,4.93-8.73,11v9.54Z" transform="translate(1.93 -164.54)"/><path class="cls-3" d="M154.91,303.76l.09-81a8.76,8.76,0,0,1,8.73-8.73H430.86a8.76,8.76,0,0,1,8.73,8.73V380.45a8.76,8.76,0,0,1-8.73,8.73H163.73a8.76,8.76,0,0,1-8.73-8.73l-.3-58.75" transform="translate(1.93 -164.54)"/><line class="cls-3" x1="339.05" y1="69.11" x2="441.52" y2="69.11"/><line class="cls-3" x1="314.85" y1="69.11" x2="326.36" y2="69.11"/><line class="cls-3" x1="156.93" y1="69.11" x2="299.22" y2="69.11"/><rect class="cls-4" x="167.57" y="79.83" width="62.38" height="31.92"/><rect class="cls-4" x="167.57" y="118.31" width="62.38" height="4.59"/><rect class="cls-4" x="167.57" y="129.47" width="62.38" height="4.59"/><rect class="cls-4" x="167.57" y="140.62" width="62.38" height="4.59"/><rect class="cls-4" x="167.57" y="151.78" width="62.38" height="4.59"/><rect class="cls-4" x="167.57" y="162.93" width="62.38" height="4.59"/><rect class="cls-4" x="243.76" y="79.83" width="95.29" height="131.66"/><rect class="cls-1" x="255.25" y="90.95" width="74.26" height="13.12"/><rect class="cls-1" x="255.25" y="115.77" width="74.26" height="13.12"/><rect class="cls-1" x="255.25" y="140.82" width="74.26" height="13.12"/><rect class="cls-1" x="255.25" y="162.68" width="74.26" height="37.68"/><rect class="cls-4" x="350.15" y="79.83" width="79.58" height="30.26"/><rect class="cls-4" x="350.15" y="130.53" width="79.58" height="30.26"/><rect class="cls-4" x="350.15" y="181.23" width="79.58" height="30.26"/><rect class="cls-4" x="350.15" y="113.48" width="62.38" height="4.59"/><rect class="cls-4" x="350.15" y="165.22" width="62.38" height="4.59"/><rect class="cls-4" x="167.57" y="174.08" width="62.38" height="4.59"/><rect class="cls-4" x="167.57" y="185.97" width="62.38" height="4.59"/><path class="cls-5" d="M167,333.9" transform="translate(1.93 -164.54)"/><path class="cls-6" d="M165.52,178l-7.65-2.54,2.54-7.65a2.51,2.51,0,0,0-4.76-1.58l-2.54,7.65-7.65-2.54a2.51,2.51,0,0,0-1.58,4.76l7.65,2.54L149,186.31a2.51,2.51,0,0,0,4.76,1.58l2.54-7.65,7.65,2.54a2.51,2.51,0,0,0,1.58-4.76Z" transform="translate(1.93 -164.54)"/><circle class="cls-7" cx="218.57" cy="302.83" r="11.84"/><circle class="cls-8" cx="261.33" cy="285.5" r="4.5"/><circle class="cls-9" cx="51.71" cy="110.09" r="49.73"/><path class="cls-10" d="M41.95,281.16v7.78a14.54,14.54,0,0,0,7.61,2.33,20,20,0,0,0,8.06-1.91l-.16-8.2-7.9-4.93Z" transform="translate(1.93 -164.54)"/><path class="cls-11" d="M57.51,286.26l.06,3.18,0,0-.11-5.57c-3,1.74-5.91,2.75-8,2.75-1.81,0-4.66-1-7.61-2.72v2.41c3,1.72,5.81,2.72,7.61,2.72C51.6,289,54.54,288,57.51,286.26Z" transform="translate(1.93 -164.54)"/><path class="cls-12" d="M41.95,281.16v7.78a14.54,14.54,0,0,0,7.61,2.33,20,20,0,0,0,8.06-1.91l-.16-8.2-7.9-4.93Z" transform="translate(1.93 -164.54)"/><path class="cls-13" d="M57.51,286.26l.06,3.18,0,0-.11-5.57c-3,1.74-5.91,2.75-8,2.75-1.81,0-4.66-1-7.61-2.72v2.41c3,1.72,5.81,2.72,7.61,2.72C51.6,289,54.54,288,57.51,286.26Z" transform="translate(1.93 -164.54)"/><path class="cls-14" d="M57.66,287.4l0,2a20,20,0,0,1-8.06,1.91,14.54,14.54,0,0,1-7.61-2.33l-.09-1.66a43,43,0,0,0-29.22,15.92s12.82,18.94,37.09,18.94,37.21-18.94,37.21-18.94A46.15,46.15,0,0,0,57.66,287.4Z" transform="translate(1.93 -164.54)"/><path class="cls-15" d="M41.95,281.16v7.78a14.54,14.54,0,0,0,7.61,2.33,20,20,0,0,0,8.06-1.91l-.16-8.2-7.9-4.93Z" transform="translate(1.93 -164.54)"/><circle class="cls-16" cx="32.44" cy="98.55" r="3.63"/><circle class="cls-16" cx="70.53" cy="98.55" r="3.63"/><path class="cls-17" d="M49.56,286.54c-5.19,0-19-8.22-19-18.26V254.66c0-10,8.57-18.26,19-18.26h0c10.48,0,19,8.22,19,18.26v13.61C68.61,278.32,55.39,286.54,49.56,286.54Z" transform="translate(1.93 -164.54)"/><circle class="cls-18" cx="44.32" cy="96.73" r="1.81"/><circle class="cls-18" cx="57.73" cy="96.73" r="1.81"/><path class="cls-19" d="M47,268a2.59,2.59,0,0,1,5.19,0" transform="translate(1.93 -164.54)"/><path class="cls-19" d="M55.69,274.62c0,2.24-4,4-6.13,4-2.59,0-6.13-1.81-6.13-4" transform="translate(1.93 -164.54)"/><path class="cls-20" d="M68.61,262.77v-8.1c0-10-8.57-18.26-19-18.26h0c-10.48,0-19,8.22-19,18.26v8.1h3.87l.11-8.27s-.19-7.84,4.12-7.3c2.22.28,17.35.85,21-.54s4.56,7.84,4.56,7.84l.42,8.27Z" transform="translate(1.93 -164.54)"/><path class="cls-21" d="M49.56,286.54c-5.19,0-19-8.22-19-18.26V254.66c0-10,8.57-18.26,19-18.26h0c10.48,0,19,8.22,19,18.26v13.61C68.61,278.32,55.39,286.54,49.56,286.54Z" transform="translate(1.93 -164.54)"/><path class="cls-21" d="M57.55,287.4l0,2a20,20,0,0,1-8.06,1.91,14.54,14.54,0,0,1-7.61-2.33l-.09-1.66a43,43,0,0,0-29.22,15.92s12.93,18.94,37.21,18.94,37.09-18.94,37.09-18.94A46.15,46.15,0,0,0,57.55,287.4Z" transform="translate(1.93 -164.54)"/><path class="cls-21" d="M60.2,287.95l-.06,2.64a26.87,26.87,0,0,1-10.85,2.57A19.57,19.57,0,0,1,39,290l-.12-2.23" transform="translate(1.93 -164.54)"/><path class="cls-22" d="M30.51,304.71c-1.32,3.92-1,13.71-1,13.71" transform="translate(1.93 -164.54)"/><path class="cls-22" d="M68.1,305.6c1.32,3.92,1,13.71,1,13.71" transform="translate(1.93 -164.54)"/><circle class="cls-23" cx="51.65" cy="107.88" r="49.73"/><circle class="cls-24" cx="549.67" cy="211.46" r="50.35"/><path class="cls-25" d="M536.11,347.76s-15.66-1.54-11.14,24.85,5.24,25.29,5.24,25.29l36.45-.18s7-27.71,1.18-42.82C559.34,332.88,535.73,342.24,536.11,347.76Z" transform="translate(1.93 -164.54)"/><circle class="cls-26" cx="531.28" cy="206.3" r="3.5"/><path class="cls-27" d="M540.18,387.42v7.51s0,9.79,7.57,9.79,7.57-9.38,7.57-9.38l-.16-7.92-7.63-4.76Z" transform="translate(1.93 -164.54)"/><circle class="cls-26" cx="568.06" cy="206.3" r="3.5"/><path class="cls-13" d="M540.18,379.11v11s-.37,6.34,7.57,6.34c7.57,0,7.65-5.22,7.65-5.22l-.24-12.08-7.63-4.76Z" transform="translate(1.93 -164.54)"/><path class="cls-28" d="M540.18,387.51V395s0,9.79,7.57,9.79,7.57-9.38,7.57-9.38l-.16-7.92-7.63-4.76Z" transform="translate(1.93 -164.54)"/><path class="cls-26" d="M547.31,393.35c-5,0-18.39-7.94-18.39-17.64V362.57c0-9.7,8.28-17.64,18.39-17.64h0c10.12,0,18.39,7.94,18.39,17.64v13.14C565.7,385.41,552.94,393.35,547.31,393.35Z" transform="translate(1.93 -164.54)"/><circle class="cls-18" cx="542.76" cy="202.82" r="1.75"/><circle class="cls-18" cx="555.7" cy="202.82" r="1.75"/><path class="cls-29" d="M545.24,373.87a2.5,2.5,0,1,1,5,0" transform="translate(1.93 -164.54)"/><path class="cls-29" d="M553.67,380.26c0,2.16-3.85,3.91-5.92,3.91-2.5,0-5.92-1.75-5.92-3.91" transform="translate(1.93 -164.54)"/><path class="cls-30" d="M528.91,368.6s4.74-6.44,6.08-10.23a35.55,35.55,0,0,0,1.64-5.71,33.56,33.56,0,0,0,12.56,9.77,92.23,92.23,0,0,0,16.5,4.63v-5c0-9.7-8.28-17.64-18.39-17.64h0c-10.12,0-18.39,7.94-18.39,17.64Z" transform="translate(1.93 -164.54)"/><path class="cls-31" d="M539.36,350.38s7,6.11,10,7.64c3.28,1.67,13.27,4.63,13.27,4.63" transform="translate(1.93 -164.54)"/><path class="cls-31" d="M543.73,349.11s7.33,5.9,10.48,7.15a75.51,75.51,0,0,0,7.94,2.49" transform="translate(1.93 -164.54)"/><path class="cls-32" d="M555.36,395.75h-.05c-.1,1.76-.9,9-7.55,9-6.35,0-7.37-6.9-7.54-9.11h-.12A41.55,41.55,0,0,0,511.88,411s12.43,15.54,35.87,15.54S583.62,411,583.62,411A44.57,44.57,0,0,0,555.36,395.75Z" transform="translate(1.93 -164.54)"/><path class="cls-33" d="M530.79,411.09c-1.52,2.74-1.88,11.81-1.88,11.81" transform="translate(1.93 -164.54)"/><path class="cls-33" d="M563.82,411.09c1.52,2.74,1.88,11.81,1.88,11.81" transform="translate(1.93 -164.54)"/><circle class="cls-23" cx="549.67" cy="211.66" r="50.35"/><path class="cls-34" d="M110.94,275.07,140,288.65v1.26c0,9.6,7.2,17.46,16,17.46H290.32c8.8,0,16-7.86,16-17.46V265c0-9.6-7.2-17.46-16-17.46H156c-8.8,0-16,7.86-16,17.46v.36Z" transform="translate(1.93 -164.54)"/><path class="cls-35" d="M485,376.39l-29.11-13.58v-1.26c0-9.6-7.2-17.46-16-17.46H305.63c-8.8,0-16,7.86-16,17.46v24.92c0,9.6,7.2,17.46,16,17.46H439.9c8.8,0,16-7.86,16-17.46v-.36Z" transform="translate(1.93 -164.54)"/></svg>