<svg id="Layer_1" data-name="Layer 1" xmlns="http://www.w3.org/2000/svg" viewBox="0 0 592.82 305.68"><defs><style>.cls-1,.cls-8{fill:#cbebfb;}.cls-10,.cls-15,.cls-17,.cls-2,.cls-22,.cls-23,.cls-4,.cls-5,.cls-6,.cls-9{fill:none;}.cls-13,.cls-2{stroke:#115679;}.cls-17,.cls-19,.cls-2,.cls-21,.cls-22,.cls-23,.cls-4,.cls-5,.cls-6,.cls-7{stroke-linecap:round;}.cls-11,.cls-2,.cls-6,.cls-7,.cls-9{stroke-linejoin:round;}.cls-2{stroke-width:5.2px;}.cls-3,.cls-7{fill:#fff;}.cls-4,.cls-5,.cls-6{stroke:#37a1da;}.cls-10,.cls-12,.cls-13,.cls-15,.cls-17,.cls-18,.cls-19,.cls-20,.cls-21,.cls-22,.cls-23,.cls-4,.cls-5{stroke-miterlimit:10;}.cls-4{stroke-width:2.7px;}.cls-5{stroke-width:2.96px;}.cls-6{stroke-width:7.24px;}.cls-7,.cls-9{stroke:#cae9fa;stroke-width:4.9px;}.cls-8{opacity:0.41;}.cls-10{stroke:#d88128;stroke-width:4.19px;}.cls-11,.cls-18,.cls-19{fill:#f9a942;}.cls-11,.cls-12,.cls-15,.cls-17,.cls-18,.cls-19,.cls-20,.cls-21{stroke:#717373;}.cls-11,.cls-12,.cls-13,.cls-15,.cls-17,.cls-18,.cls-19,.cls-20,.cls-21{stroke-width:1.21px;}.cls-12,.cls-13{fill:#f2d5ba;}.cls-14{fill:#dfc5ad;}.cls-16{fill:#717373;}.cls-20{fill:#d6d6d6;}.cls-21{fill:#a3a3a3;}.cls-22,.cls-23{stroke:#37a2db;}.cls-22{stroke-width:3.87px;}.cls-23{stroke-width:4.55px;}.cls-24{fill:#2697d3;}.cls-25{fill:#cae9fa;}</style></defs><title>home_finish</title><circle class="cls-1" cx="8.29" cy="199.25" r="8.29"/><path class="cls-2" d="M369.29,348.09" transform="translate(-1 -170.92)"/><polyline class="cls-3" points="167.99 139.43 167.99 228.24 167.99 305.25 399.11 305.25 399.11 138.84 167.99 138.84"/><path class="cls-4" d="M352.05,307.59" transform="translate(-1 -170.92)"/><path class="cls-5" d="M308.33,278.29" transform="translate(-1 -170.92)"/><path class="cls-6" d="M253.29,253.31" transform="translate(-1 -170.92)"/><polyline class="cls-7" points="397.45 203.73 397.45 188.4 397.45 136.82 166.32 136.82 166.32 137.4 166.32 226.21 166.32 303.23 397.45 303.23 397.45 224.57"/><path class="cls-8" d="M204.25,221.52l.09,18.17-55,46.92c-12.77,10.1-5.6,23.17,5.1,23.15l41.89,0H240l63.37,0H364c24.84,0,42.73,0,46.21.11,13.93.25,17.83-13.19,6.2-23.15L287.77,176.85a6,6,0,0,0-4.78-1.4h-.23a6,6,0,0,0-4.78,1.4l-45.76,39L232,182.32H204.06l.12,25.34Z" transform="translate(-1 -170.92)"/><path class="cls-9" d="M204.25,219.5l.09,18.17-55,46.92c-12.77,10.1-5.6,23.17,5.1,23.15l41.89,0H240l63.37,0H364c24.84,0,42.73,0,46.21.11,13.93.25,17.83-13.19,6.2-23.15L287.77,174.83a6,6,0,0,0-4.78-1.4h-.23a6,6,0,0,0-4.78,1.4l-45.76,39L232,180.3H204.06l.12,25.34Z" transform="translate(-1 -170.92)"/><circle class="cls-10" cx="64.31" cy="177.89" r="11.73"/><circle class="cls-1" cx="139.88" cy="237.29" r="50.64"/><path class="cls-11" d="M129.18,379.8s-15.75-1.55-11.2,25,5.27,25.44,5.27,25.44l36.66-.18S167,402.19,161.1,387C152.55,364.84,128.8,374.25,129.18,379.8Z" transform="translate(-1 -170.92)"/><circle class="cls-12" cx="121.38" cy="232.09" r="3.52"/><path class="cls-13" d="M133.27,419.7v7.55s0,9.85,7.61,9.85,7.61-9.44,7.61-9.44l-.16-8-7.67-4.79Z" transform="translate(-1 -170.92)"/><circle class="cls-12" cx="158.38" cy="232.09" r="3.52"/><path class="cls-14" d="M133.27,411.33v11s-.37,6.38,7.61,6.38c7.61,0,7.69-5.25,7.69-5.25l-.24-12.15-7.67-4.79Z" transform="translate(-1 -170.92)"/><path class="cls-15" d="M133.27,419.78v7.55s0,9.85,7.61,9.85,7.61-9.44,7.61-9.44l-.16-8L140.67,415Z" transform="translate(-1 -170.92)"/><path class="cls-12" d="M140.44,425.66c-5,0-18.5-8-18.5-17.74V394.7c0-9.76,8.32-17.74,18.5-17.74h0c10.17,0,18.5,8,18.5,17.74v13.22C158.94,417.68,146.1,425.66,140.44,425.66Z" transform="translate(-1 -170.92)"/><circle class="cls-16" cx="132.93" cy="228.6" r="1.76"/><circle class="cls-16" cx="145.95" cy="228.6" r="1.76"/><path class="cls-17" d="M138.36,406.06a2.52,2.52,0,1,1,5,0" transform="translate(-1 -170.92)"/><path class="cls-17" d="M146.84,412.49c0,2.17-3.87,3.93-6,3.93-2.52,0-6-1.76-6-3.93" transform="translate(-1 -170.92)"/><path class="cls-18" d="M121.94,400.76s4.76-6.48,6.12-10.29a35.76,35.76,0,0,0,1.65-5.75,33.76,33.76,0,0,0,12.63,9.82,92.77,92.77,0,0,0,16.6,4.65v-5.05c0-9.76-8.32-17.74-18.5-17.74h0c-10.17,0-18.5,8-18.5,17.74Z" transform="translate(-1 -170.92)"/><path class="cls-19" d="M132.45,382.44s7,6.14,10.06,7.69c3.3,1.68,13.35,4.66,13.35,4.66" transform="translate(-1 -170.92)"/><path class="cls-19" d="M136.85,381.16s7.38,5.94,10.54,7.19a76,76,0,0,0,8,2.5" transform="translate(-1 -170.92)"/><path class="cls-20" d="M148.54,428.07h-.05c-.1,1.77-.91,9.05-7.6,9.05-6.39,0-7.42-6.94-7.58-9.17h-.12a41.79,41.79,0,0,0-28.38,15.46S117.31,459,140.88,459,177,443.41,177,443.41A44.83,44.83,0,0,0,148.54,428.07Z" transform="translate(-1 -170.92)"/><path class="cls-21" d="M123.82,443.5c-1.53,2.75-1.89,11.88-1.89,11.88" transform="translate(-1 -170.92)"/><path class="cls-21" d="M157.05,443.5c1.53,2.75,1.89,11.88,1.89,11.88" transform="translate(-1 -170.92)"/><circle class="cls-22" cx="139.88" cy="237.49" r="50.64"/><path class="cls-23" d="M497.52,337.74" transform="translate(-1 -170.92)"/><path class="cls-24" d="M507.77,349.8a6.06,6.06,0,0,1-8.5.78L465.8,322.76a6.06,6.06,0,0,0-8.5.78l-3.92,4.71a6.06,6.06,0,0,0,.78,8.5l33.47,27.82,9.29,7.72,3,2.5a6.06,6.06,0,0,0,8.5-.78l3.92-4.71,7.72-9.29L592.44,273a6.06,6.06,0,0,0-.78-8.5l-3-2.5a6.06,6.06,0,0,0-8.5.78Z" transform="translate(-1 -170.92)"/><path class="cls-8" d="M250,474.15V400.39c0-14.16,5-25.75,22.59-25.75H293.2c18.9,0,22.59,11.59,22.59,25.75v73.76Z" transform="translate(-1 -170.92)"/><path class="cls-9" d="M250.17,474.15V400.39c0-14.16,5-25.75,22.59-25.75h20.63c18.9,0,22.59,11.59,22.59,25.75v73.76Z" transform="translate(-1 -170.92)"/><rect class="cls-25" x="301.47" y="253.48" width="8.12" height="8.12" rx="4.06" ry="4.06"/></svg>