<svg id="Layer_1" data-name="Layer 1" xmlns="http://www.w3.org/2000/svg" viewBox="0 0 604.39 335.97"><defs><style>.cls-1{fill:#fff;}.cls-2{fill:#e5e6e6;}.cls-14,.cls-19,.cls-23,.cls-29,.cls-3,.cls-30,.cls-39,.cls-44,.cls-6{fill:none;}.cls-3{stroke:#cae9fa;stroke-width:4.18px;}.cls-18,.cls-21,.cls-22,.cls-23,.cls-3,.cls-30,.cls-32,.cls-34,.cls-42,.cls-45{stroke-linecap:round;}.cls-11,.cls-12,.cls-14,.cls-15,.cls-16,.cls-18,.cls-19,.cls-20,.cls-21,.cls-22,.cls-23,.cls-26,.cls-27,.cls-29,.cls-3,.cls-30,.cls-31,.cls-32,.cls-33,.cls-34,.cls-35,.cls-36,.cls-37,.cls-38,.cls-39,.cls-40,.cls-41,.cls-42,.cls-44,.cls-45,.cls-5,.cls-6{stroke-miterlimit:10;}.cls-16,.cls-24,.cls-4{fill:#cbebfb;}.cls-4{opacity:0.41;}.cls-5{fill:#352215;stroke:#1c1a10;}.cls-5,.cls-6{stroke-width:2px;}.cls-6{stroke:#7e7e7e;}.cls-7{fill:#e1f3fc;}.cls-22,.cls-8{fill:#0971ae;}.cls-34,.cls-9{fill:#a3a3a3;}.cls-10,.cls-33{fill:#e9e8e7;}.cls-11,.cls-12,.cls-15,.cls-18,.cls-35{fill:#ffebd3;}.cls-11,.cls-14,.cls-16,.cls-18,.cls-19,.cls-20,.cls-21,.cls-22,.cls-25,.cls-26,.cls-29,.cls-30,.cls-31,.cls-32,.cls-33,.cls-34,.cls-39,.cls-40,.cls-42,.cls-44{stroke:#717373;}.cls-11,.cls-15,.cls-16,.cls-18,.cls-19,.cls-20,.cls-21,.cls-22{stroke-width:1.35px;}.cls-12,.cls-15,.cls-27,.cls-35,.cls-36,.cls-37,.cls-38,.cls-41{stroke:#115679;}.cls-12,.cls-14{stroke-width:1.2px;}.cls-13,.cls-26,.cls-27,.cls-36,.cls-37,.cls-40,.cls-41,.cls-42{fill:#f2d5ba;}.cls-17{fill:#717373;}.cls-20,.cls-21{fill:#9a8479;}.cls-23,.cls-45{stroke:#37a2db;stroke-width:4.46px;}.cls-25,.cls-31,.cls-32{fill:#f9a942;}.cls-25{stroke-linejoin:round;}.cls-25,.cls-26,.cls-27,.cls-29,.cls-30,.cls-31,.cls-32,.cls-33,.cls-34{stroke-width:1.39px;}.cls-28{fill:#dfc5ad;}.cls-35,.cls-37,.cls-39{stroke-width:1.28px;}.cls-36{stroke-width:0.72px;}.cls-38{fill:#82d0f4;}.cls-38,.cls-40,.cls-41,.cls-42,.cls-44{stroke-width:1.44px;}.cls-43{fill:#716558;opacity:0.44;}.cls-45{fill:#1b86c8;stroke-dasharray:21.79;}</style></defs><title>home_hire</title><path class="cls-1" d="M463.18,300.3v45.35a9.68,9.68,0,0,1-9.65,9.65H158.2a9.68,9.68,0,0,1-9.65-9.65V171.35a9.68,9.68,0,0,1,9.65-9.65H453.53a9.68,9.68,0,0,1,9.65,9.65v100" transform="translate(2.16 -105.31)"/><path class="cls-2" d="M463.18,181.82v-8.4a9.68,9.68,0,0,0-9.65-9.65H158.2a9.68,9.68,0,0,0-9.65,9.65v8.4Z" transform="translate(2.16 -105.31)"/><path class="cls-3" d="M463.18,270.88v-100a9.68,9.68,0,0,0-9.65-9.65H158.2a9.68,9.68,0,0,0-9.65,9.65v174.3a9.68,9.68,0,0,0,9.65,9.65H453.53a9.68,9.68,0,0,0,9.65-9.65V270.88Z" transform="translate(2.16 -105.31)"/><line class="cls-3" x1="150.7" y1="77.55" x2="465.34" y2="77.55"/><rect class="cls-4" x="162.47" y="89.41" width="68.97" height="35.29"/><rect class="cls-4" x="162.47" y="131.95" width="68.97" height="5.07"/><rect class="cls-4" x="162.47" y="144.29" width="68.97" height="5.07"/><rect class="cls-4" x="162.47" y="156.62" width="68.97" height="5.07"/><rect class="cls-4" x="162.47" y="168.95" width="68.97" height="5.07"/><rect class="cls-4" x="162.47" y="181.28" width="68.97" height="5.07"/><rect class="cls-4" x="246.71" y="89.41" width="105.35" height="145.56"/><rect class="cls-1" x="259.4" y="101.7" width="82.1" height="14.5"/><rect class="cls-1" x="259.4" y="129.14" width="82.1" height="14.5"/><rect class="cls-1" x="259.4" y="156.84" width="82.1" height="14.5"/><rect class="cls-1" x="259.4" y="181.01" width="82.1" height="41.66"/><rect class="cls-4" x="364.33" y="89.41" width="87.98" height="33.45"/><rect class="cls-4" x="364.33" y="145.46" width="87.98" height="33.45"/><rect class="cls-4" x="364.33" y="201.51" width="87.98" height="33.45"/><rect class="cls-4" x="364.33" y="126.61" width="68.97" height="5.07"/><rect class="cls-4" x="364.33" y="183.82" width="68.97" height="5.07"/><rect class="cls-4" x="162.47" y="193.61" width="68.97" height="5.07"/><rect class="cls-4" x="162.47" y="206.75" width="68.97" height="5.07"/><path class="cls-5" d="M325.89,356.72" transform="translate(2.16 -105.31)"/><path class="cls-6" d="M317,345.26" transform="translate(2.16 -105.31)"/><path class="cls-7" d="M317,353.47" transform="translate(2.16 -105.31)"/><circle class="cls-8" cx="160.79" cy="425.56" r="5.62" transform="translate(-49.27 -82.14) rotate(-7.11)"/><path class="cls-9" d="M226.73,395.07l-9.19,5.1-5.1-9.19a3.27,3.27,0,0,0-5.72,3.18l5.1,9.19-9.19,5.1a3.27,3.27,0,0,0,3.18,5.72l9.19-5.1,5.1,9.19a3.27,3.27,0,0,0,5.72-3.18l-5.1-9.19,9.19-5.1a3.27,3.27,0,0,0-3.18-5.72Z" transform="translate(2.16 -105.31)"/><circle class="cls-10" cx="62.76" cy="60.72" r="55.86"/><circle class="cls-11" cx="41.94" cy="50.88" r="3.94"/><path class="cls-12" d="M52.21,175.84v8.45a15.8,15.8,0,0,0,8.28,2.53,21.7,21.7,0,0,0,8.76-2.07l-.18-8.91-8.59-5.36Z" transform="translate(2.16 -105.31)"/><circle class="cls-11" cx="83.35" cy="50.88" r="3.94"/><path class="cls-13" d="M69.13,181.39l.07,3.46.05,0-.12-6.05c-3.22,1.89-6.42,3-8.64,3-2,0-5.07-1.08-8.28-3v2.62c3.21,1.87,6.31,3,8.28,3C62.7,184.37,65.9,183.27,69.13,181.39Z" transform="translate(2.16 -105.31)"/><path class="cls-14" d="M52.21,175.84v8.45a15.8,15.8,0,0,0,8.28,2.53,21.7,21.7,0,0,0,8.76-2.07l-.18-8.91-8.59-5.36Z" transform="translate(2.16 -105.31)"/><circle class="cls-13" cx="41.26" cy="50.88" r="1.6"/><circle class="cls-13" cx="83.9" cy="50.88" r="1.6"/><path class="cls-15" d="M60.49,181.69c-5.64,0-20.71-8.93-20.71-19.85V147c0-10.92,9.32-19.85,20.71-19.85h0c11.39,0,20.71,8.93,20.71,19.85v14.8C81.19,172.76,66.83,181.69,60.49,181.69Z" transform="translate(2.16 -105.31)"/><path class="cls-16" d="M69.29,182.62l0,2.14a21.7,21.7,0,0,1-8.76,2.07,15.8,15.8,0,0,1-8.28-2.53l-.1-1.8a46.77,46.77,0,0,0-31.77,17.3A51.74,51.74,0,0,0,60.6,219.26c26.39,0,40.51-19.46,40.51-19.46A50.17,50.17,0,0,0,69.29,182.62Z" transform="translate(2.16 -105.31)"/><circle class="cls-17" cx="54.86" cy="48.91" r="1.97"/><circle class="cls-17" cx="69.44" cy="48.91" r="1.97"/><path class="cls-18" d="M57.67,161.55a2.82,2.82,0,1,1,5.64,0" transform="translate(2.16 -105.31)"/><path class="cls-18" d="M67.15,168.74c0,2.43-4.33,4.4-6.66,4.4-2.82,0-6.66-2-6.66-4.4" transform="translate(2.16 -105.31)"/><path class="cls-13" d="M46.27,140.62s11.38,6.3,15.35,5.07c12-3.74,17,8.79,16.4,11.94C77.78,159,80.13,144,80.13,144l-6.48-8Z" transform="translate(2.16 -105.31)"/><path class="cls-19" d="M60.73,181.84C55.08,181.84,40,172.91,40,162v-14.8c0-10.92,9.32-19.85,20.71-19.85h0c11.39,0,20.71,8.93,20.71,19.85V162C81.44,172.91,67.07,181.84,60.73,181.84Z" transform="translate(2.16 -105.31)"/><path class="cls-20" d="M39.78,157.63H43V147.21s.54-7.09,5.81-7.45,8.47,3.08,11.67,2.54,8.35-3.32,11.84-3.68c3.15-.32,5.07,4.86,5.26,5.4s.44,13.61.44,13.61h3.17V130.38s-3-8.94-21.86-5.13-19.56,10.89-19.56,10.89Z" transform="translate(2.16 -105.31)"/><path class="cls-21" d="M70.14,139.06s4.62-1.49,5-1.74c1.5-1,2-6.33,2-6.33" transform="translate(2.16 -105.31)"/><path class="cls-21" d="M55.42,141.09s9.43-3.85,10.53-4.95,4.2-5.16,4.2-5.16" transform="translate(2.16 -105.31)"/><path class="cls-21" d="M46.27,140.62s6.23-3.3,6.86-3.79,4.36-3.3,4.36-3.3" transform="translate(2.16 -105.31)"/><path class="cls-19" d="M72.3,183.41l-.06,2.87a29.21,29.21,0,0,1-11.79,2.79,21.27,21.27,0,0,1-11.14-3.41l-.14-2.43" transform="translate(2.16 -105.31)"/><path class="cls-22" d="M41.52,198.55a39.69,39.69,0,0,0-3.09,9.7,44.79,44.79,0,0,0-.93,7.2" transform="translate(2.16 -105.31)"/><path class="cls-22" d="M78.12,199.28a39.69,39.69,0,0,1,3.09,9.7,44.79,44.79,0,0,1,.93,7.2" transform="translate(2.16 -105.31)"/><circle class="cls-23" cx="62.76" cy="58.09" r="55.86"/><circle class="cls-24" cx="543.88" cy="265.45" r="58.28"/><path class="cls-25" d="M528.25,338.28s-18.13-1.78-12.89,28.77,6.06,29.27,6.06,29.27l42.19-.21S571.73,364,565,346.54C555.14,321.06,527.81,331.89,528.25,338.28Z" transform="translate(2.16 -105.31)"/><circle class="cls-26" cx="522.58" cy="259.68" r="4.05"/><path class="cls-27" d="M533,384.19v8.69s0,11.33,8.76,11.33,8.76-10.86,8.76-10.86l-.18-9.17-8.83-5.51Z" transform="translate(2.16 -105.31)"/><circle class="cls-26" cx="565.17" cy="259.68" r="4.05"/><path class="cls-28" d="M533,374.56v12.69s-.43,7.34,8.76,7.34c8.76,0,8.86-6,8.86-6l-.28-14-8.83-5.51Z" transform="translate(2.16 -105.31)"/><path class="cls-29" d="M533,384.28V393s0,11.33,8.76,11.33,8.76-10.86,8.76-10.86l-.18-9.17-8.83-5.51Z" transform="translate(2.16 -105.31)"/><path class="cls-26" d="M541.21,391c-5.8,0-21.29-9.19-21.29-20.41V355.42c0-11.23,9.58-20.41,21.29-20.41h0c11.71,0,21.29,9.19,21.29,20.41v15.22C562.5,381.86,547.73,391,541.21,391Z" transform="translate(2.16 -105.31)"/><circle class="cls-17" cx="535.87" cy="255.66" r="2.03"/><circle class="cls-17" cx="550.86" cy="255.66" r="2.03"/><path class="cls-30" d="M538.82,368.5a2.9,2.9,0,0,1,5.8,0" transform="translate(2.16 -105.31)"/><path class="cls-30" d="M548.57,375.89c0,2.5-4.45,4.53-6.85,4.53-2.9,0-6.85-2-6.85-4.53" transform="translate(2.16 -105.31)"/><path class="cls-31" d="M519.92,362.4s5.48-7.45,7-11.84a41.15,41.15,0,0,0,1.9-6.61s5.76,7.71,14.54,11.31a106.77,106.77,0,0,0,19.1,5.36v-5.82c0-11.23-9.58-20.41-21.29-20.41h0c-11.71,0-21.29,9.19-21.29,20.41Z" transform="translate(2.16 -105.31)"/><path class="cls-32" d="M532,341.31s8.09,7.07,11.58,8.85c3.8,1.93,12.82,4.57,12.82,4.57" transform="translate(2.16 -105.31)"/><path class="cls-32" d="M535.58,339.84s8.09,7.07,11.58,8.85c3.8,1.93,12.82,4.57,12.82,4.57" transform="translate(2.16 -105.31)"/><path class="cls-33" d="M550.53,393.82h-.06c-.11,2-1,10.42-8.74,10.42-7.35,0-8.53-8-8.72-10.55h-.14a48.09,48.09,0,0,0-32.66,17.79s14.39,18,41.53,18,41.53-18,41.53-18A51.59,51.59,0,0,0,550.53,393.82Z" transform="translate(2.16 -105.31)"/><path class="cls-34" d="M522.09,411.58c-1.76,3.17-2.17,13.67-2.17,13.67" transform="translate(2.16 -105.31)"/><path class="cls-34" d="M560.33,411.58c1.76,3.17,2.17,13.67,2.17,13.67" transform="translate(2.16 -105.31)"/><circle class="cls-23" cx="543.88" cy="265.89" r="58.28"/><circle class="cls-10" cx="59.86" cy="278.41" r="57.56"/><path class="cls-35" d="M48.63,391.28v9a16.83,16.83,0,0,0,8.81,2.7,23.11,23.11,0,0,0,9.33-2.21l-.19-9.49-9.14-5.71Z" transform="translate(2.16 -105.31)"/><path class="cls-36" d="M66.64,397.19l.07,3.68.05,0-.13-6.45c-3.43,2-6.84,3.18-9.2,3.18-2.09,0-5.39-1.15-8.81-3.14v2.79c3.42,2,6.72,3.14,8.81,3.14C59.8,400.37,63.21,399.2,66.64,397.19Z" transform="translate(2.16 -105.31)"/><path class="cls-37" d="M48.63,391.28v9a16.83,16.83,0,0,0,8.81,2.7,23.11,23.11,0,0,0,9.33-2.21l-.19-9.49-9.14-5.71Z" transform="translate(2.16 -105.31)"/><path class="cls-28" d="M66.64,397.19l.07,3.68.05,0-.13-6.45c-3.43,2-6.84,3.18-9.2,3.18-2.09,0-5.39-1.15-8.81-3.14v2.79c3.42,2,6.72,3.14,8.81,3.14C59.8,400.37,63.21,399.2,66.64,397.19Z" transform="translate(2.16 -105.31)"/><path class="cls-38" d="M66.82,398.5l0,2.27A23.11,23.11,0,0,1,57.44,403a16.83,16.83,0,0,1-8.81-2.7l-.11-1.92a49.81,49.81,0,0,0-33.82,18.43s14.84,21.93,42.94,21.93,43.07-21.93,43.07-21.93A53.43,53.43,0,0,0,66.82,398.5Z" transform="translate(2.16 -105.31)"/><path class="cls-39" d="M48.63,391.28v9a16.83,16.83,0,0,0,8.81,2.7,23.11,23.11,0,0,0,9.33-2.21l-.19-9.49-9.14-5.71Z" transform="translate(2.16 -105.31)"/><circle class="cls-40" cx="37.55" cy="265.05" r="4.2"/><circle class="cls-40" cx="81.65" cy="265.05" r="4.2"/><path class="cls-41" d="M57.44,397.51c-6,0-22-9.51-22-21.14V360.61c0-11.63,9.92-21.14,22-21.14h0c12.13,0,22,9.51,22,21.14v15.76C79.49,388,64.19,397.51,57.44,397.51Z" transform="translate(2.16 -105.31)"/><circle class="cls-17" cx="51.31" cy="262.95" r="2.1"/><circle class="cls-17" cx="66.83" cy="262.95" r="2.1"/><path class="cls-42" d="M54.44,376.06a3,3,0,0,1,6,0" transform="translate(2.16 -105.31)"/><path class="cls-42" d="M64.54,383.72c0,2.59-4.61,4.69-7.1,4.69-3,0-7.1-2.1-7.1-4.69" transform="translate(2.16 -105.31)"/><path class="cls-43" d="M79.49,370v-9.38c0-11.63-9.92-21.14-22-21.14h0c-12.13,0-22,9.51-22,21.14V370h4.48l.13-9.58s-.22-9.08,4.77-8.45c2.57.32,20.08,1,24.26-.63s5.28,9.08,5.28,9.08L74.8,370Z" transform="translate(2.16 -105.31)"/><path class="cls-44" d="M57.44,397.51c-6,0-22-9.51-22-21.14V360.61c0-11.63,9.92-21.14,22-21.14h0c12.13,0,22,9.51,22,21.14v15.76C79.49,388,64.19,397.51,57.44,397.51Z" transform="translate(2.16 -105.31)"/><path class="cls-44" d="M66.69,398.5l0,2.27A23.11,23.11,0,0,1,57.31,403a16.83,16.83,0,0,1-8.81-2.7l-.11-1.92a49.81,49.81,0,0,0-33.82,18.43s15,21.93,43.07,21.93,42.94-21.93,42.94-21.93A53.43,53.43,0,0,0,66.69,398.5Z" transform="translate(2.16 -105.31)"/><path class="cls-44" d="M69.76,399.14l-.07,3.06a31.11,31.11,0,0,1-12.56,3,22.65,22.65,0,0,1-11.86-3.63L45.12,399" transform="translate(2.16 -105.31)"/><path class="cls-42" d="M35.39,418.54c-1.53,4.54-1.13,15.87-1.13,15.87" transform="translate(2.16 -105.31)"/><path class="cls-42" d="M78.9,419.58c1.53,4.54,1.13,15.87,1.13,15.87" transform="translate(2.16 -105.31)"/><circle class="cls-23" cx="59.79" cy="275.85" r="57.56"/><line class="cls-45" x1="112.16" y1="85.27" x2="488.43" y2="247.94"/></svg>