<svg id="Layer_1" data-name="Layer 1" xmlns="http://www.w3.org/2000/svg" viewBox="0 0 170 170"><defs><style>.cls-1{fill:#fff;}.cls-2,.cls-3,.cls-4,.cls-8,.cls-9{fill:none;stroke-miterlimit:10;}.cls-2,.cls-3,.cls-4,.cls-9{stroke:#37a2db;}.cls-2,.cls-3,.cls-8,.cls-9{stroke-linecap:round;}.cls-2{stroke-width:2.24px;}.cls-3{stroke-width:2.13px;}.cls-4{stroke-width:2.4px;}.cls-5{fill:#37a2db;}.cls-6{fill:#cecdcc;}.cls-7{fill:#b3e3f9;}.cls-8{stroke:#f58b1f;stroke-width:2.36px;}.cls-9{stroke-width:1.77px;}</style></defs><title>HvacIcon</title><circle class="cls-1" cx="85" cy="85" r="85"/><path class="cls-2" d="M135.9,52.14" transform="translate(0)"/><rect class="cls-3" x="42.44" y="56.74" width="99.45" height="62.36" rx="10.26" ry="10.26"/><circle class="cls-4" cx="74.97" cy="87.58" r="26.82"/><rect class="cls-5" x="110.92" y="84.16" width="24.8" height="2.47" rx="1.15" ry="1.15"/><rect class="cls-5" x="110.92" y="89.66" width="24.8" height="2.47" rx="1.15" ry="1.15"/><rect class="cls-5" x="110.92" y="95.16" width="24.8" height="2.47" rx="1.15" ry="1.15"/><rect class="cls-6" x="31.5" y="114.4" width="7.78" height="2.1" rx="0.95" ry="0.95" transform="translate(70.57 230.97) rotate(-179.9)"/><rect class="cls-6" x="40.73" y="125.57" width="7.78" height="2.1" rx="0.95" ry="0.95" transform="translate(-82.08 171.01) rotate(-89.9)"/><rect class="cls-6" x="33.19" y="122.36" width="7.78" height="2.1" rx="0.95" ry="0.95" transform="translate(-76.3 62.16) rotate(-44.9)"/><path class="cls-7" d="M74.25,85.13a37.89,37.89,0,0,0-1.48-10.62c-1.24-4.3-9.06-6.85-7.52-7.78a24.38,24.38,0,0,1,8.31-2.93c3.68-.45,5.73.22,7.85,1.69,3.2,2.22,2.53,3.64,2.31,5.59-.44,3.89-6.77,14.35-6.77,14.35l-1.69,2.45A6.73,6.73,0,0,1,74.25,85.13Z" transform="translate(0)"/><path class="cls-7" d="M76.27,90.15a37.89,37.89,0,0,0,1.48,10.62c1.24,4.3,9.06,6.85,7.52,7.78A24.38,24.38,0,0,1,77,111.47c-3.68.45-5.73-.22-7.85-1.69-3.2-2.22-2.53-3.64-2.31-5.59.44-3.89,6.77-14.35,6.77-14.35l1.69-2.45A6.73,6.73,0,0,1,76.27,90.15Z" transform="translate(0)"/><path class="cls-7" d="M72.6,88.77A37.89,37.89,0,0,0,62,90.25c-4.3,1.24-6.85,9.06-7.78,7.52a24.38,24.38,0,0,1-2.93-8.31c-.45-3.68.22-5.73,1.69-7.85,2.22-3.2,3.64-2.53,5.59-2.31,3.89.44,14.35,6.77,14.35,6.77l2.45,1.69A6.73,6.73,0,0,1,72.6,88.77Z" transform="translate(0)"/><path class="cls-7" d="M77.61,86.74a37.89,37.89,0,0,0,10.62-1.48C92.53,84,95.08,76.2,96,77.74a24.38,24.38,0,0,1,2.93,8.31c.45,3.68-.22,5.73-1.69,7.85-2.22,3.2-3.64,2.53-5.59,2.31-3.89-.44-14.35-6.77-14.35-6.77l-2.45-1.69A6.73,6.73,0,0,1,77.61,86.74Z" transform="translate(0)"/><rect class="cls-5" x="110.92" y="78.66" width="24.8" height="2.47" rx="1.15" ry="1.15"/><path class="cls-2" d="M123.32,129a58.36,58.36,0,0,1-69,5.6" transform="translate(0)"/><path class="cls-2" d="M94.22,27.39a58.27,58.27,0,0,1,35.59,20.26" transform="translate(0)"/><path class="cls-2" d="M85,26.66" transform="translate(0)"/><path class="cls-2" d="M62.29,31.25" transform="translate(0)"/><path class="cls-2" d="M30.17,105A58.41,58.41,0,0,1,54.75,35.11" transform="translate(0)"/><line class="cls-8" x1="79.35" y1="29.59" x2="84.61" y2="38.64"/><line class="cls-8" x1="87.13" y1="31.12" x2="76.94" y2="37.05"/><circle class="cls-7" cx="83.93" cy="18.04" r="2.45" transform="translate(33.94 87.84) rotate(-66.52)"/><circle class="cls-9" cx="65.96" cy="28.51" r="4.12"/></svg>