<svg id="Layer_1" data-name="Layer 1" xmlns="http://www.w3.org/2000/svg" viewBox="0 0 478.91 478.91"><defs><style>.cls-1,.cls-5{fill:#fff;}.cls-2,.cls-3,.cls-6{fill:none;}.cls-2{stroke:#0078bd;stroke-width:6.64px;}.cls-2,.cls-5{stroke-linecap:round;}.cls-2,.cls-3,.cls-5,.cls-6,.cls-7,.cls-8,.cls-9{stroke-miterlimit:10;}.cls-3{stroke:#85d5f6;stroke-width:5.71px;}.cls-4{fill:#a3a3a3;}.cls-5,.cls-6,.cls-7,.cls-8,.cls-9{stroke:#37a4dc;}.cls-5{stroke-width:6.3px;}.cls-6,.cls-7{stroke-width:6.84px;}.cls-7{fill:#cbebfb;}.cls-8,.cls-9{fill:#37a4dc;}.cls-8{stroke-width:5.51px;}.cls-9{stroke-width:7.25px;}</style></defs><title>landscape_icon</title><circle class="cls-1" cx="239.46" cy="239.46" r="239.46"/><line class="cls-2" x1="339.57" y1="104.14" x2="354.39" y2="129.62"/><line class="cls-2" x1="361.48" y1="108.45" x2="332.78" y2="125.14"/><circle class="cls-3" cx="256.11" cy="142.66" r="16.66"/><circle class="cls-4" cx="378.61" cy="213.54" r="6.68" transform="translate(-98.57 276.4) rotate(-45.05)"/><path class="cls-5" d="M371.92,451.5A174,174,0,0,1,133.07,239.06" transform="translate(-58.57 -54.23)"/><path class="cls-5" d="M442.19,196.89A174.18,174.18,0,0,1,460.11,357.1" transform="translate(-58.57 -54.23)"/><path class="cls-5" d="M207.33,145.74A174.19,174.19,0,0,1,365.7,133.9" transform="translate(-58.57 -54.23)"/><rect class="cls-4" x="188.94" y="143.33" width="12.81" height="223.96" rx="5.09" ry="5.09" transform="translate(-152.68 61.22) rotate(-26.79)"/><path class="cls-6" d="M284.31,346.24l1.13-8.12c1.74-12.52,10.87-21.69,20.28-20.38l85.75,11.93c9.41,1.31,15.68,12.62,13.94,25.15l-1.13,8.12" transform="translate(-58.57 -54.23)"/><path class="cls-7" d="M414.83,411.48H250.74c-15.15,0-27.54-9.22-27.54-20.48l2.14-40.48c0-11.27,12.39-20.48,27.54-20.48l161.95,28.19c15.15,0,27.54,9.22,27.54,20.48V391C442.37,402.26,430,411.48,414.83,411.48Z" transform="translate(-58.57 -54.23)"/><circle class="cls-8" cx="343.96" cy="342.86" r="23.93"/><circle class="cls-9" cx="203.67" cy="342.86" r="23.87"/></svg>