<svg id="Layer_1" data-name="Layer 1" xmlns="http://www.w3.org/2000/svg" viewBox="0 0 600 150"><title>logo_white</title><path d="M45.33,75a18.79,18.79,0,0,0-4.83-3.29,13.32,13.32,0,0,0-5.85-1.34,10.28,10.28,0,0,0-4.36.92,3.24,3.24,0,0,0-2,3.19A3.17,3.17,0,0,0,30.5,77.6a47.9,47.9,0,0,0,7.13,2.06,38.48,38.48,0,0,1,5.8,1.75,20.56,20.56,0,0,1,5.29,3,14.3,14.3,0,0,1,3.8,4.52A13.28,13.28,0,0,1,54,95.27a15.34,15.34,0,0,1-7,13.56,21.89,21.89,0,0,1-7,3,33.7,33.7,0,0,1-7.8.92,38.51,38.51,0,0,1-12.27-2,25.75,25.75,0,0,1-10-5.91l9.44-10A18.81,18.81,0,0,0,24.8,99a15.38,15.38,0,0,0,7,1.64,9.16,9.16,0,0,0,4.05-1,3.5,3.5,0,0,0,2-3.44,3.69,3.69,0,0,0-2.46-3.49,44.18,44.18,0,0,0-7.7-2.36,39.62,39.62,0,0,1-5.34-1.64,16.87,16.87,0,0,1-4.77-2.77,13.77,13.77,0,0,1-3.44-4.32,13.21,13.21,0,0,1-1.33-6.17,15,15,0,0,1,2-7.86,16.53,16.53,0,0,1,5-5.29,22.39,22.39,0,0,1,6.83-3,29.46,29.46,0,0,1,7.44-1,35.93,35.93,0,0,1,11.24,1.8,24.29,24.29,0,0,1,9.29,5.39Z" fill="#fff"/><path d="M114.42,86.13v2.05a18,18,0,0,1-.1,2H77.26A8.92,8.92,0,0,0,78.54,94a11.06,11.06,0,0,0,2.77,3,13.59,13.59,0,0,0,8.16,2.72,14.15,14.15,0,0,0,6.78-1.49,13.39,13.39,0,0,0,4.52-3.85l11.7,7.4a23.69,23.69,0,0,1-9.5,8.07,31.42,31.42,0,0,1-13.7,2.83,32.68,32.68,0,0,1-10.88-1.8,26.37,26.37,0,0,1-9-5.24,24.24,24.24,0,0,1-6.06-8.48,28.38,28.38,0,0,1-2.21-11.51A28.82,28.82,0,0,1,63.3,74.36a25.67,25.67,0,0,1,5.85-8.63,26.08,26.08,0,0,1,8.73-5.5,29.84,29.84,0,0,1,10.88-2,27.55,27.55,0,0,1,10.37,1.9,22.6,22.6,0,0,1,8.11,5.5,25.43,25.43,0,0,1,5.29,8.73A33.65,33.65,0,0,1,114.42,86.13Zm-15.5-6.47a10.11,10.11,0,0,0-2.52-6.88q-2.52-2.88-7.55-2.88a12.76,12.76,0,0,0-4.52.77,11.7,11.7,0,0,0-3.59,2.11,10.44,10.44,0,0,0-2.46,3.13,9.18,9.18,0,0,0-1,3.75H98.92Z" fill="#fff"/><path d="M158,73.79a13.26,13.26,0,0,0-2.21-.41q-1.08-.1-2.1-0.1a12,12,0,0,0-5.7,1.23,11.61,11.61,0,0,0-3.7,3,11.25,11.25,0,0,0-2,3.79,12.69,12.69,0,0,0-.62,3.58v26.23H124.89V60h16.22v7.4h0.21A16.67,16.67,0,0,1,146.86,61a14.27,14.27,0,0,1,8.32-2.48,19.44,19.44,0,0,1,2,.1,7.79,7.79,0,0,1,1.59.31Z" fill="#fff"/><path d="M204.55,111.09H186.38L166.26,59.92h18.58l10.78,33.19h0.31l10.78-33.19h18Z" fill="#fff"/><path d="M249.41,43.59a8.72,8.72,0,0,1-.77,3.65,9.22,9.22,0,0,1-5.13,4.88,10,10,0,0,1-3.75.72,9.42,9.42,0,0,1-6.88-2.72,8.82,8.82,0,0,1-2.77-6.52,9,9,0,0,1,.72-3.54,8.38,8.38,0,0,1,2.05-2.93,11.08,11.08,0,0,1,3.08-2,9.29,9.29,0,0,1,3.8-.77,10,10,0,0,1,3.75.72,9.22,9.22,0,0,1,5.13,4.88A8.72,8.72,0,0,1,249.41,43.59Zm-18.07,67.51V59.92h16.84v51.17H231.34Z" fill="#fff"/><path d="M296.84,76.47a10.22,10.22,0,0,0-3.9-3,12,12,0,0,0-5-1.13,10.64,10.64,0,0,0-4.83,1.08,11.74,11.74,0,0,0-3.7,2.88A13.54,13.54,0,0,0,277,80.47a14.42,14.42,0,0,0-.87,5,15.19,15.19,0,0,0,.82,5,12.24,12.24,0,0,0,2.41,4.16,11.46,11.46,0,0,0,3.8,2.83,11.65,11.65,0,0,0,5,1,13.92,13.92,0,0,0,5.08-1,9.72,9.72,0,0,0,4.06-2.83l9.34,11.41a21.94,21.94,0,0,1-8.21,4.83,32.34,32.34,0,0,1-10.68,1.75,33.81,33.81,0,0,1-11.31-1.85,26.25,26.25,0,0,1-9.12-5.39,25.32,25.32,0,0,1-6.09-8.58A28,28,0,0,1,259,85.51a27.73,27.73,0,0,1,2.22-11.3,25.33,25.33,0,0,1,6.09-8.58,26.92,26.92,0,0,1,9.12-5.45,32.69,32.69,0,0,1,11.21-1.9,29.59,29.59,0,0,1,5.49.51,37.19,37.19,0,0,1,5.24,1.39,24,24,0,0,1,4.62,2.16,19.46,19.46,0,0,1,3.64,2.83Z" fill="#fff"/><path d="M363.87,86.13v2.05a18,18,0,0,1-.1,2H326.71A8.92,8.92,0,0,0,328,94a11.07,11.07,0,0,0,2.77,3,13.59,13.59,0,0,0,8.16,2.72,14.15,14.15,0,0,0,6.78-1.49,13.4,13.4,0,0,0,4.52-3.85l11.7,7.4a23.69,23.69,0,0,1-9.5,8.07,31.42,31.42,0,0,1-13.71,2.83,32.68,32.68,0,0,1-10.88-1.8,26.37,26.37,0,0,1-9-5.24,24.24,24.24,0,0,1-6.06-8.48,28.38,28.38,0,0,1-2.21-11.51,28.84,28.84,0,0,1,2.16-11.35,25.67,25.67,0,0,1,5.85-8.63,26.08,26.08,0,0,1,8.73-5.5,29.83,29.83,0,0,1,10.88-2,27.55,27.55,0,0,1,10.37,1.9,22.6,22.6,0,0,1,8.11,5.5A25.44,25.44,0,0,1,362,74.41,33.65,33.65,0,0,1,363.87,86.13Zm-15.5-6.47a10.11,10.11,0,0,0-2.51-6.88q-2.52-2.88-7.55-2.88a12.76,12.76,0,0,0-4.52.77,11.69,11.69,0,0,0-3.59,2.11,10.45,10.45,0,0,0-2.46,3.13,9.17,9.17,0,0,0-1,3.75h21.66Z" fill="#fff"/><path d="M386.66,106.16a5.57,5.57,0,0,1-1.54,3.85,5.58,5.58,0,0,1-8,0,5.59,5.59,0,0,1,0-7.71,5.58,5.58,0,0,1,8,0A5.58,5.58,0,0,1,386.66,106.16Z" fill="#fff"/><path d="M438.3,74a13.28,13.28,0,0,0-5.08-4.57,15,15,0,0,0-7.24-1.8,18.69,18.69,0,0,0-7.6,1.49,17.19,17.19,0,0,0-5.8,4.11,18,18,0,0,0-3.7,6.17A22.27,22.27,0,0,0,407.6,87a21.84,21.84,0,0,0,1.28,7.6,18.58,18.58,0,0,0,3.64,6.11,16.63,16.63,0,0,0,5.75,4.11,18.68,18.68,0,0,0,7.6,1.49,15.31,15.31,0,0,0,13-6.27l5.24,3.9a22.87,22.87,0,0,1-7.55,6.06,23.53,23.53,0,0,1-10.73,2.26,28.1,28.1,0,0,1-10.57-1.9,23.38,23.38,0,0,1-8.06-5.29,24,24,0,0,1-5.18-8,28.36,28.36,0,0,1,0-20.14,24,24,0,0,1,5.18-8,23.41,23.41,0,0,1,8.06-5.29,28.1,28.1,0,0,1,10.57-1.9,25.06,25.06,0,0,1,9.8,2.11,19.21,19.21,0,0,1,8.06,6.22Z" fill="#fff"/><path d="M502.77,87a26.25,26.25,0,0,1-1.9,10.07,24.25,24.25,0,0,1-5.29,8,24,24,0,0,1-8.11,5.29,27.54,27.54,0,0,1-10.37,1.9,27.25,27.25,0,0,1-10.27-1.9,24,24,0,0,1-8.11-5.29,24.22,24.22,0,0,1-5.29-8,27.64,27.64,0,0,1,0-20.14,23.7,23.7,0,0,1,13.4-13.31,27.25,27.25,0,0,1,10.27-1.9,27.54,27.54,0,0,1,10.37,1.9A24,24,0,0,1,495.58,69a24.25,24.25,0,0,1,5.29,8A26.26,26.26,0,0,1,502.77,87Zm-7.39,0a22,22,0,0,0-1.28-7.55,18.56,18.56,0,0,0-3.64-6.17,17.25,17.25,0,0,0-5.75-4.16,18.14,18.14,0,0,0-7.6-1.54,17.78,17.78,0,0,0-7.54,1.54,17.37,17.37,0,0,0-5.7,4.16,18.47,18.47,0,0,0-3.64,6.17,22.86,22.86,0,0,0,0,15.1,18.47,18.47,0,0,0,3.64,6.17,16.75,16.75,0,0,0,5.7,4.11,18.31,18.31,0,0,0,7.54,1.49,18.68,18.68,0,0,0,7.6-1.49,16.64,16.64,0,0,0,5.75-4.11,18.56,18.56,0,0,0,3.64-6.17A22,22,0,0,0,495.38,87Z" fill="#fff"/><path d="M530.95,64.39a17.77,17.77,0,0,1,9.5-2.62,21.29,21.29,0,0,1,4.05.41,13,13,0,0,1,4.11,1.59,15,15,0,0,1,3.7,3.13,17.57,17.57,0,0,1,2.93,5,18.11,18.11,0,0,1,6.72-7.55,18.92,18.92,0,0,1,10.11-2.62q9.14,0,13.71,5.45t4.57,14.38v29.49h-7V84.48q0-7.6-2.82-12.23t-9.6-4.62a12.45,12.45,0,0,0-6.42,1.54,12.25,12.25,0,0,0-4.21,4.06,18,18,0,0,0-2.31,5.7,29.77,29.77,0,0,0-.72,6.58v25.58h-7V83a36.46,36.46,0,0,0-.51-6.37,13.32,13.32,0,0,0-1.8-4.88,8.42,8.42,0,0,0-3.54-3.08,13.36,13.36,0,0,0-5.75-1.08,12.09,12.09,0,0,0-5,1.13,13,13,0,0,0-4.52,3.44A17.72,17.72,0,0,0,526,78.06a25.56,25.56,0,0,0-1.23,8.37v24.66h-7V73.59q0-2-.1-5T517.34,63H524q0.21,2,.31,4.32t0.1,3.9h0.21A16.35,16.35,0,0,1,530.95,64.39Z" fill="#fff"/></svg>