<svg id="Layer_1" data-name="Layer 1" xmlns="http://www.w3.org/2000/svg" viewBox="0 0 170 170"><defs><style>.cls-1,.cls-11,.cls-12,.cls-5,.cls-6,.cls-7,.cls-9{fill:none;}.cls-1,.cls-3,.cls-4,.cls-5,.cls-6,.cls-7,.cls-9{stroke:#37a2db;}.cls-1,.cls-11,.cls-12,.cls-3,.cls-4,.cls-5,.cls-6,.cls-7{stroke-linecap:round;}.cls-1,.cls-11,.cls-12,.cls-13,.cls-9{stroke-miterlimit:10;}.cls-1{stroke-width:2.24px;}.cls-2{fill:#fff;}.cls-10,.cls-3,.cls-4{fill:#b3e3f9;}.cls-3,.cls-4,.cls-5,.cls-6,.cls-7{stroke-linejoin:round;}.cls-3{stroke-width:2.21px;}.cls-4{stroke-width:2.31px;}.cls-5{stroke-width:2.69px;}.cls-11,.cls-6{stroke-width:2.24px;}.cls-7{stroke-width:2.52px;}.cls-8{fill:#f8a841;}.cls-9{stroke-width:1.68px;}.cls-11,.cls-12{stroke:#fff;}.cls-12{stroke-width:2.71px;}.cls-13{fill:#e9e8e7;stroke:#a3a3a3;stroke-width:2.16px;}</style></defs><title>RoofingIcon</title><path class="cls-1" d="M107.06,7.26" transform="translate(0)"/><path class="cls-1" d="M84.44,11.82" transform="translate(0)"/><circle class="cls-2" cx="85" cy="85" r="85"/><path class="cls-3" d="M40.15,72c4.72,0,90.13-.09,95.15,0,5.18.09,6.63-4.91,2.31-8.61L89.75,22.56A2.21,2.21,0,0,0,88,22h-.09a2.21,2.21,0,0,0-1.78.52l-17,14.53L69,24.59H58.61l.1,21.34L38.25,63.39C33.5,67.15,36.17,72,40.15,72Z" transform="translate(0)"/><line class="cls-4" x1="44.09" y1="72" x2="44.09" y2="105.04"/><path class="cls-5" d="M48.62,38.39" transform="translate(0)"/><path class="cls-5" d="M33.65,55.67" transform="translate(0)"/><path class="cls-5" d="M85,25.88" transform="translate(0)"/><path class="cls-6" d="M144,77.63a60.07,60.07,0,0,1,.45,7.37,59.33,59.33,0,0,1-20.19,44.65" transform="translate(0)"/><path class="cls-6" d="M107.95,30.11a59.7,59.7,0,0,1,26.44,21.73" transform="translate(0)"/><path class="cls-7" d="M85,25.52" transform="translate(0)"/><path class="cls-6" d="M44.09,128.18A59.48,59.48,0,0,1,48.4,38.11" transform="translate(0)"/><path class="cls-6" d="M62.71,140" transform="translate(0)"/><path class="cls-6" d="M87.38,143.73a59.31,59.31,0,0,1-22.48-2.95" transform="translate(0)"/><circle class="cls-8" cx="55.7" cy="135.1" r="2.45" transform="translate(-90.41 132.36) rotate(-66.52)"/><circle class="cls-9" cx="56.62" cy="120.76" r="5.08"/><circle class="cls-10" cx="70.24" cy="120.76" r="3.47" transform="translate(-64.85 85.16) rotate(-45.05)"/><line class="cls-11" x1="61.01" y1="64.34" x2="127.68" y2="64.34"/><line class="cls-11" x1="77.08" y1="55.08" x2="120.45" y2="55.08"/><line class="cls-11" x1="80.58" y1="45.68" x2="100.83" y2="45.68"/><line class="cls-11" x1="92.76" y1="36" x2="98.11" y2="36"/><line class="cls-11" x1="88.45" y1="36" x2="76.73" y2="36"/><line class="cls-11" x1="76.26" y1="45.68" x2="66.53" y2="45.68"/><line class="cls-11" x1="71.61" y1="55.08" x2="65.93" y2="55.08"/><line class="cls-11" x1="60.58" y1="55.08" x2="57.59" y2="55.08"/><line class="cls-11" x1="56.14" y1="64.34" x2="46.61" y2="64.34"/><line class="cls-11" x1="105.54" y1="45.68" x2="109.56" y2="45.68"/><path class="cls-11" d="M94,32" transform="translate(0)"/><path class="cls-11" d="M83.41,32" transform="translate(0)"/><path class="cls-12" d="M95.54,31.48" transform="translate(0)"/><path class="cls-13" d="M115.19,61.87a2.56,2.56,0,0,0-2.61,2.49v14.7h-11V64.36a2.61,2.61,0,0,0-5.21,0V149.1a2.61,2.61,0,0,0,5.21,0V136.7h11v12.4a2.61,2.61,0,0,0,5.21,0V64.36A2.56,2.56,0,0,0,115.19,61.87Zm-13.63,52.21v-12.4h11v12.4Zm11-30v12.4h-11V84Zm-11,47.68v-12.4h11v12.4Z" transform="translate(0)"/><line class="cls-11" x1="65.02" y1="36" x2="62.03" y2="36"/></svg>